Coordinates
version=1
nRows=7
nColumns=40
inDegrees=yes

Units are S.I. units (second, meters, Newtons, ...)
Angles are in degrees.

endheader
time	pelvis_tilt	pelvis_list	pelvis_rotation	pelvis_tx	pelvis_ty	pelvis_tz	hip_flexion_r	hip_adduction_r	hip_rotation_r	knee_angle_r	knee_angle_r_beta	ankle_angle_r	subtalar_angle_r	mtp_angle_r	hip_flexion_l	hip_adduction_l	hip_rotation_l	knee_angle_l	knee_angle_l_beta	ankle_angle_l	subtalar_angle_l	mtp_angle_l	lumbar_extension	lumbar_bending	lumbar_rotation	arm_flex_r	arm_add_r	arm_rot_r	elbow_flex_r	pro_sup_r	wrist_flex_r	wrist_dev_r	arm_flex_l	arm_add_l	arm_rot_l	elbow_flex_l	pro_sup_l	wrist_flex_l	wrist_dev_l
      5.88250000	     -5.05853655	     -4.62801946	      9.54955562	      0.95873202	      0.92053705	      0.47788908	      2.03799317	      1.80913102	    -14.73654240	     16.63748761	     16.63748761	     18.37710558	     -0.23187809	     -1.91969470	     27.32597780	     -6.40690861	      3.18088255	     24.90222062	     24.90222062	      6.03853822	    -11.24192558	      2.35823569	     -8.41546623	      3.72895959	      2.79829966	     60.39759107	    -16.53734508	     -0.49597819	     75.39653782	     44.56040842	      0.00000000	      0.00000000	    -11.29463522	    -13.30322962	     22.96723691	     29.16146089	     43.73974715	      0.00000000	      0.00000000
      5.90314286	     -5.01409391	     -4.66875929	      8.95121500	      0.96018377	      0.92070202	      0.47316919	      1.41692397	      1.53817668	    -14.47676392	     16.30219314	     16.30219314	     18.27030434	      0.42811513	     -1.87465414	     27.15022009	     -6.28508010	      3.10809675	     25.70075551	     25.70075551	      6.60064405	    -12.22108040	      2.50445086	     -8.40057047	      3.92689802	      3.03197940	     60.16105921	    -16.54154258	     -0.47529740	     74.88262504	     44.58559824	      0.00000000	      0.00000000	    -10.64210487	    -13.59419927	     22.92116147	     29.37842116	     43.77252960	      0.00000000	      0.00000000
      5.92378571	     -5.02662207	     -4.64075072	      8.27691677	      0.96167224	      0.92083404	      0.46839972	      0.96946758	      1.14400443	    -14.09000523	     16.18662377	     16.18662377	     18.20566159	      0.94530181	     -1.86161181	     26.91276527	     -6.12138058	      2.83781318	     26.32881282	     26.32881282	      7.09081104	    -12.98101864	      2.51022752	     -8.38334716	      4.04010846	      3.12386264	     59.64551579	    -16.31688275	     -0.36183661	     74.47915513	     44.59638374	      0.00000000	      0.00000000	    -10.00727921	    -13.88948828	     22.86362011	     29.53483677	     43.79540591	      0.00000000	      0.00000000
      5.94442857	     -4.94617689	     -4.64477779	      7.64478639	      0.96323397	      0.92113888	      0.46333041	      0.34992701	      0.68947598	    -14.28051776	     15.95700452	     15.95700452	     18.15510823	      2.40209868	     -1.89582422	     26.56906801	     -5.87741945	      2.90345646	     26.95199592	     26.95199592	      7.79100373	    -14.12399911	      3.56875058	     -8.32951976	      4.23416546	      3.42123767	     59.23667856	    -16.43087940	     -0.51243501	     72.80776319	     44.67225642	      0.00000000	      0.00000000	     -9.14202770	    -14.17162136	     22.91412408	     29.78760630	     43.83040090	      0.00000000	      0.00000000
      5.96507143	     -4.90673502	     -4.58643417	      6.95397444	      0.96480622	      0.92138048	      0.45826375	     -0.00134600	      0.10487783	    -14.27011540	     16.14260997	     16.14260997	     18.20194246	      3.56693322	     -1.88021639	     26.24868106	     -5.64976990	      2.62169901	     27.58328026	     27.58328026	      8.75786311	    -14.69012289	      4.94762213	     -8.25363173	      4.33827790	      3.35478222	     58.66946545	    -15.99449639	     -0.68223388	     70.95620666	     44.76236087	      0.00000000	      0.00000000	     -8.38447430	    -14.43185746	     23.11947550	     29.89662922	     43.86060930	      0.00000000	      0.00000000
      5.98571429	     -4.81589366	     -4.62975817	      6.22964569	      0.96648576	      0.92169957	      0.45323581	     -0.34616016	     -0.30197875	    -13.78133032	     16.35430608	     16.35430608	     18.05958367	      3.92882733	     -1.87583850	     25.80665105	     -5.58545590	      2.17466687	     28.03524606	     28.03524606	      9.22375561	    -15.21730945	      4.92128752	     -8.25832599	      4.57259476	      3.25832455	     57.48832540	    -15.61481638	     -0.51648162	     70.41998733	     44.77151835	      0.00000000	      0.00000000	     -7.60129212	    -14.63342780	     23.06518191	     30.10247349	     43.88404651	      0.00000000	      0.00000000
      6.00635714	     -4.68768352	     -4.64864013	      5.48456269	      0.96812715	      0.92217031	      0.44818666	     -0.58082234	     -0.80848121	    -13.36411586	     16.82827588	     16.82827588	     17.91878600	      4.43178377	     -1.96229299	     25.26632492	     -5.49911246	      1.69369660	     28.38935825	     28.38935825	      9.72081455	    -15.67880082	      5.02262470	     -8.27706110	      4.75925098	      3.25968255	     56.04357492	    -15.45734243	     -0.47749624	     69.39165117	     44.80163751	      0.00000000	      0.00000000	     -6.65520205	    -14.82125122	     23.00446472	     30.36083833	     43.91277228	      0.00000000	      0.00000000
